<svg width="560" height="518" viewBox="0 0 560 518" fill="none" xmlns="http://www.w3.org/2000/svg">
<mask id="mask0_13_575" style="mask-type:alpha" maskUnits="userSpaceOnUse" x="0" y="0" width="560" height="518">
<rect width="560" height="518" fill="white"/>
</mask>
<g mask="url(#mask0_13_575)">
<path d="M431.492 85.4279L461.173 99.4926L501.021 79.0976L504.339 104.116L550.143 98.1376L525.83 124.554L560.094 135.275L517.437 152.999L527.073 176.325L482.366 178.587L463.694 205.608L434.013 191.543L394.165 211.938L390.847 186.919L345.043 192.898L369.356 166.481L335.092 155.76L377.749 138.036L368.113 114.71L412.82 112.449L431.492 85.4279Z" fill="#F66119"/>
<path d="M392.055 171.229C395.505 170.305 397.833 168.422 398.894 165.187L406.203 166.77C404.83 171.19 400.441 175.513 393.504 177.372C383.814 179.968 375.933 176.69 373.612 168.028C371.291 159.365 376.477 152.586 386.461 149.911C393.104 148.131 399.05 149.764 402.346 152.815L396.771 157.849C394.374 155.659 391.434 155.109 387.983 156.034C382.698 157.45 379.892 161.073 381.21 165.992C382.528 170.91 386.769 172.646 392.055 171.229ZM419.178 147.006C425.088 145.423 429.294 148.348 430.72 153.67L433.927 165.636L426.696 167.573L423.617 156.085C422.909 153.442 420.991 152.303 418.238 153.041C415.852 153.68 414.102 155.369 413.229 158.278L416.455 170.317L409.224 172.255L403.775 151.92L401.946 145.093L409.177 143.155L411.124 150.423L411.872 153.213C412.918 150.218 415.545 147.98 419.178 147.006ZM440.339 154.673C441.752 157.598 444.546 158.187 448.657 157.086C451.887 156.22 453.626 154.928 455.231 152.846L459.935 155.716C457.723 159.063 454.255 161.094 449.63 162.333C441.004 164.644 434.855 161.807 433.025 154.98C431.196 148.153 435.03 142.641 443.178 140.457C450.519 138.49 456.715 140.764 458.643 147.958C458.859 148.766 458.95 149.253 458.912 149.696L440.339 154.673ZM444.609 145.503C441.489 146.339 439.628 148.057 439.48 150.733L451.353 147.473C449.943 145.293 447.692 144.677 444.609 145.503ZM485.653 146.347C484.83 150.029 481.694 153.741 475.528 155.394C467.416 157.567 461.21 154.667 459.4 147.913C457.58 141.122 461.515 135.544 469.626 133.37C475.756 131.728 480.255 133.394 482.752 136.109L477.218 140.267C475.603 138.496 473.461 138.284 471.185 138.893C467.478 139.887 465.373 142.457 466.337 146.054C467.291 149.614 470.409 150.825 474.116 149.831C476.355 149.231 478.204 147.91 478.771 145.476L485.653 146.347ZM505.782 146.382L497.449 139.803L494.376 144.482L495.615 149.106L488.384 151.044L481.106 123.882L488.337 121.945L492.556 137.691L499.489 126.274L507.601 124.1L501.325 134.594L513.564 144.297L505.782 146.382ZM506.863 118.554L515.489 116.243L518.74 133.075L512.464 134.757L506.863 118.554ZM518.17 143.574C515.674 144.243 513.536 143.163 512.976 141.071C512.425 139.016 513.717 136.939 516.213 136.27C518.672 135.611 520.83 136.764 521.381 138.819C521.942 140.911 520.63 142.915 518.17 143.574Z" fill="white"/>
<path d="M255.924 294.768L459.85 203.633L560.101 427.956L356.175 519.092L255.924 294.768Z" fill="#222222"/>
<rect x="290.247" y="257.599" width="130.365" height="43.1783" rx="21.5891" transform="rotate(-24.0801 290.247 257.599)" fill="#7681FC"/>
<rect x="329.456" y="219.158" width="27.4016" height="43.1783" rx="13.7008" transform="rotate(-24.0801 329.456 219.158)" fill="#B1B7FD"/>
<rect x="349.124" y="314.052" width="75.5619" height="3.3214" transform="rotate(-24.0801 349.124 314.052)" fill="white"/>
<rect x="348.999" y="313.832" width="75.5619" height="6" transform="rotate(-24.0801 348.999 313.832)" fill="white"/>
<rect x="356.241" y="329.971" width="111.267" height="6" transform="rotate(-24.0801 356.241 329.971)" fill="white"/>
<path fill-rule="evenodd" clip-rule="evenodd" d="M336.33 320.873C337.108 321.162 337.498 322.024 337.201 322.799L327.771 347.386C327.627 347.762 327.338 348.066 326.968 348.23C326.598 348.394 326.178 348.404 325.803 348.259L314.903 344.035C314.129 343.736 313.751 342.868 314.06 342.097C314.368 341.326 315.246 340.944 316.02 341.244L325.499 344.917L334.382 321.754C334.68 320.979 335.552 320.584 336.33 320.873Z" fill="#5577FF"/>
<rect x="375.187" y="368.628" width="75.5619" height="3.3214" transform="rotate(-24.0801 375.187 368.628)" fill="white"/>
<rect x="375.062" y="368.408" width="75.5619" height="6" transform="rotate(-24.0801 375.062 368.408)" fill="white"/>
<rect x="382.304" y="384.547" width="111.267" height="6" transform="rotate(-24.0801 382.304 384.547)" fill="white"/>
<path fill-rule="evenodd" clip-rule="evenodd" d="M362.393 375.449C363.171 375.738 363.561 376.6 363.264 377.375L353.834 401.962C353.69 402.338 353.4 402.642 353.031 402.806C352.661 402.97 352.241 402.98 351.866 402.835L340.965 398.612C340.191 398.312 339.814 397.444 340.123 396.673C340.431 395.902 341.309 395.521 342.083 395.821L351.561 399.493L360.445 376.33C360.742 375.555 361.614 375.161 362.393 375.449Z" fill="#5577FF"/>
<rect x="399.187" y="421.627" width="75.5619" height="3.3214" transform="rotate(-24.0801 399.187 421.627)" fill="white"/>
<rect x="399.062" y="421.407" width="75.5619" height="6" transform="rotate(-24.0801 399.062 421.407)" fill="white"/>
<rect x="406.304" y="437.546" width="111.267" height="6" transform="rotate(-24.0801 406.304 437.546)" fill="white"/>
<path fill-rule="evenodd" clip-rule="evenodd" d="M386.393 428.448C387.171 428.737 387.561 429.599 387.264 430.374L377.834 454.961C377.69 455.337 377.401 455.64 377.031 455.805C376.661 455.969 376.241 455.979 375.866 455.834L364.965 451.61C364.191 451.311 363.814 450.443 364.123 449.672C364.431 448.901 365.309 448.519 366.083 448.819L375.562 452.492L384.445 429.329C384.742 428.554 385.614 428.159 386.393 428.448Z" fill="#5577FF"/>
<rect x="17.2189" y="285.694" width="310.239" height="108.114" rx="54.0568" transform="rotate(16.231 17.2189 285.694)" fill="#FF8C5D"/>
<path d="M42.7579 426.46C48.4739 420.518 50.2697 413.61 50.425 408.693C50.491 406.602 51.7663 404.602 53.8124 404.163C69.3626 400.828 91.6583 399.473 78.7032 416.5C68.6643 429.694 54.9403 433.392 44.7211 433.569C41.0968 433.632 40.2448 429.072 42.7579 426.46Z" fill="#FF8C5D"/>
<rect x="55.7462" y="322.625" width="183" height="10" transform="rotate(16.23 55.7462 322.625)" fill="#F66119"/>
<rect x="49.4982" y="345" width="212.24" height="10" transform="rotate(16.23 49.4982 345)" fill="#F66119"/>
<rect x="43.4982" y="368" width="195.573" height="10" transform="rotate(16.23 43.4982 368)" fill="#F66119"/>
<rect width="163.52" height="56.9843" rx="28.4921" transform="matrix(-0.960143 0.279511 0.279511 0.960143 301.001 -6)" fill="#222222"/>
<path d="M197.116 43.313L197.793 45.6489L187.62 48.5974L193.179 67.7762L190.597 68.5244L185.038 49.3457L174.896 52.2853L174.219 49.9494L197.116 43.313ZM200.774 57.0791C202.249 61.2493 205.928 62.4485 210.385 61.1569C213.704 60.1948 215.461 58.7859 216.872 56.4114L219.039 57.6822C217.362 60.4007 214.85 62.1948 210.885 63.344C204.4 65.2235 199.666 62.7976 198.071 57.296C196.468 51.7637 199.171 47.182 205.503 45.347C211.465 43.6188 216.212 45.7414 217.886 51.5196C217.967 51.7963 217.98 51.9588 217.985 52.0907L200.774 57.0791ZM206.157 47.4895C202.284 48.6119 199.912 51.2319 200.291 54.9535L214.89 50.7222C213.074 47.2171 209.753 46.4473 206.157 47.4895ZM225.939 58.2812L223.419 59.0117L218.564 42.261L221.084 41.5306L222.278 45.6491C222.811 42.4295 225.689 39.8296 229.316 38.7784L229.975 41.0528C226.164 42.1574 223.396 44.7921 223.106 48.5075L225.939 58.2812ZM255.936 30.7633C261.069 29.2757 264.165 32.143 265.43 36.5074L268.192 46.0353L265.702 46.7568L262.994 37.4133C261.97 33.8788 259.69 32.1072 255.941 33.194C252.744 34.1204 250.929 36.479 250.432 39.8215C250.552 40.1199 250.65 40.458 250.739 40.7654L252.903 48.234L253.531 50.2843L251.011 51.0148L248.303 41.6713C247.278 38.1368 244.999 36.3652 241.249 37.452C238.084 38.3695 236.281 40.6577 235.775 43.9694L238.84 54.5423L236.319 55.2728L231.464 38.5221L233.985 37.7917L234.991 41.2648C235.631 38.414 237.894 35.9922 241.244 35.0213C245.117 33.8989 247.839 35.2424 249.466 37.8691C249.902 34.5444 252.371 31.7966 255.936 30.7633ZM277.99 32.6672C283.147 31.6058 287.2 31.797 288.144 35.0549C289.017 38.067 286.678 41.3769 280.962 43.0338C277.12 44.1473 273.386 43.7967 270.146 42.2705L271.307 40.3013C274.024 41.5129 276.913 41.9415 280.417 40.926C283.89 39.9194 286.314 38.0509 285.726 36.0224C285.12 33.9324 282.47 34.1007 278.091 34.9701C273.559 35.884 269.072 36.1516 268.074 32.7092C267.121 29.4206 270.292 26.569 275.241 25.1348C278.622 24.1549 282.179 24.5898 284.46 25.5613L283.352 27.715C281.392 26.8169 278.837 26.3915 275.724 27.2604C273.164 27.9691 269.869 29.5904 270.519 31.834C271.125 33.924 274.253 33.4506 277.99 32.6672Z" fill="#B1B7FD"/>
<path d="M287.73 68.3889C284.526 65.174 283.556 61.3798 283.495 58.7293C283.471 57.6833 282.833 56.6838 281.81 56.4627C273.61 54.6899 261.737 53.9341 268.593 62.9442C273.975 70.0178 281.366 71.9134 286.78 71.9442C288.592 71.9545 289.009 69.6726 287.73 68.3889Z" fill="#222222"/>
<rect x="0.0679932" y="493.035" width="289.278" height="26" transform="rotate(-6.72622 0.0679932 493.035)" fill="#7681FC"/>
<path d="M287.355 459.154L290.4 484.975L332.575 466.911L287.355 459.154Z" fill="#B1B7FD"/>
<path d="M332.575 466.911L316.762 473.71L318.468 471.092L316.188 468.843L317.882 466.126L315.617 463.997L332.575 466.911Z" fill="#3B4BFB"/>
<path d="M217.94 137.692L24.4324 25.9701L34.5394 8.46429L228.047 120.186L217.94 137.692Z" fill="#7681FC"/>
<path d="M24.4337 25.9702L34.5407 8.46438L0.0541637 0.224116L24.4337 25.9702Z" fill="#B1B7FD"/>
<path d="M0.0536745 0.223946L12.996 3.29703L10.725 4.14072L11.0911 6.59639L8.78138 7.50722L9.19421 9.88184L0.0536745 0.223946Z" fill="#3B4BFB"/>
<rect x="5.67822" y="70.6279" width="192.122" height="20.214" transform="rotate(15.9887 5.67822 70.6279)" fill="#FF8C5D"/>
<path d="M190.368 123.548L184.8 142.98L220.255 142.625L190.368 123.548Z" fill="#FFB599"/>
<path d="M220.256 142.625L206.954 142.777L208.954 141.408L208.004 139.114L210.024 137.672L209.049 135.468L220.256 142.625Z" fill="#F66119"/>
<circle cx="210" cy="289" r="48" fill="#B1B7FD"/>
<path d="M192.347 265.474L210.506 260.608L217.351 296.044L204.137 299.585L192.347 265.474ZM216.151 318.148C210.896 319.556 206.395 317.284 205.215 312.879C204.055 308.552 206.776 304.179 212.031 302.771C217.208 301.383 221.751 303.81 222.91 308.138C224.091 312.542 221.328 316.761 216.151 318.148Z" fill="#3B4BFB"/>
<path d="M117.304 126C147.847 126 172.607 150.76 172.607 181.304C172.607 192.753 169.128 203.39 163.169 212.215C169.367 221.15 173 232.001 173 243.699C173 274.242 148.239 299.003 117.696 299.003C106.123 299.003 95.3794 295.447 86.499 289.369C77.6188 295.446 66.8768 299.003 55.3037 299.003C24.7604 299.003 0.000245364 274.242 0 243.699C0 232.125 3.55568 221.382 9.63379 212.501C3.55587 203.621 0 192.877 0 181.304C9.07292e-05 150.76 24.7604 126 55.3037 126C66.7918 126 77.4616 129.503 86.3037 135.499C95.1458 129.503 105.816 126 117.304 126Z" fill="#7681FC"/>
<path d="M195 218.349L302.118 254.33L335.234 155.744L308.164 101.29L241.808 79.0002L195 218.349Z" fill="#FFB599"/>
<path d="M335.234 155.744C335.234 155.744 317.476 119.186 308.164 101.29L294.472 142.052L335.234 155.744Z" fill="#FF8C5D"/>
<path d="M362 -0.000976562L362.021 56.7041L402.135 16.623L406.377 20.8652L366.295 60.9775L423.001 61V67L366.295 67.0215L406.377 107.135L402.135 111.377L362.021 71.2949L362 128.001H356L355.978 71.2949L315.865 111.377L311.623 107.135L351.704 67.0215L294.999 67V61L351.704 60.9775L311.623 20.8652L315.865 16.623L355.978 56.7041L356 -0.000976562H362Z" fill="#3B4BFB" stroke="#3B4BFB" stroke-width="6"/>
</g>
</svg>
