<svg width="560" height="518" viewBox="0 0 560 518" fill="none" xmlns="http://www.w3.org/2000/svg">
<mask id="mask0_13_669" style="mask-type:alpha" maskUnits="userSpaceOnUse" x="0" y="0" width="560" height="518">
<rect width="560" height="518" fill="white"/>
</mask>
<g mask="url(#mask0_13_669)">
<rect width="223.364" height="147.029" rx="16" transform="matrix(-0.912976 -0.408013 -0.408013 0.912976 564.914 388.137)" fill="#222222"/>
<rect x="423.383" y="372.896" width="81.8183" height="10" transform="rotate(24.6192 423.383 372.896)" fill="white"/>
<rect x="414.377" y="394.318" width="117.911" height="10" transform="rotate(24.6192 414.377 394.318)" fill="white"/>
<rect x="404.434" y="415.896" width="94.5742" height="10" transform="rotate(24.6192 404.434 415.896)" fill="white"/>
<circle cx="384.774" cy="367" r="15" fill="#F66119"/>
<path d="M375.27 386.794C362.63 381.061 347.736 386.66 342.003 399.3L387.775 420.061C393.508 407.422 387.909 392.528 375.27 386.794Z" fill="#F66119"/>
<rect x="23.219" y="284" width="310.239" height="108.114" rx="54.0568" transform="rotate(16.231 23.219 284)" fill="#FF8C5D"/>
<path d="M48.758 424.765C54.474 418.824 56.2699 411.915 56.4251 406.999C56.4911 404.907 57.7664 402.907 59.8125 402.468C75.3627 399.134 97.6584 397.779 84.7034 414.805C74.6644 427.999 60.9404 431.698 50.7213 431.875C47.0969 431.937 46.245 427.378 48.758 424.765Z" fill="#FF8C5D"/>
<rect x="61.7463" y="320.931" width="183" height="10" transform="rotate(16.23 61.7463 320.931)" fill="#F66119"/>
<rect x="55.4983" y="343.306" width="212.24" height="10" transform="rotate(16.23 55.4983 343.306)" fill="#F66119"/>
<rect x="49.4983" y="366.306" width="195.573" height="10" transform="rotate(16.23 49.4983 366.306)" fill="#F66119"/>
<path d="M558.146 258.536C553.747 243.428 537.934 234.745 522.825 239.144L420.536 268.921C405.428 273.319 396.745 289.133 401.144 304.241C405.542 319.35 421.355 328.032 436.464 323.634L517.677 299.991C517.709 300.034 517.74 300.079 517.773 300.123C523.156 307.197 530.548 309.092 535.961 309.123C537.773 309.133 538.189 306.852 536.91 305.568C533.706 302.353 532.737 298.559 532.676 295.908C532.674 295.816 532.666 295.723 532.654 295.632L538.753 293.856C553.862 289.458 562.544 273.645 558.146 258.536Z" fill="#F66119"/>
<path d="M437.62 301.109L455.413 295.816L456.925 300.9L432.582 308.142L425.795 285.33L449.78 278.194L451.293 283.278L433.858 288.465L434.973 292.213L449.344 287.937L450.789 292.793L436.417 297.069L437.62 301.109ZM465.337 298.397L458.917 300.307L453.546 282.253L459.966 280.343L460.819 283.211C461.682 280.507 463.976 278.441 467.202 277.481C472.449 275.92 476.283 278.433 477.688 283.158L480.849 293.782L474.429 295.692L471.394 285.492C470.696 283.146 468.953 282.174 466.509 282.901C464.391 283.532 462.866 285.085 462.157 287.708L465.337 298.397ZM495.826 283.58L498.152 287.464C496.852 289.056 494.505 290.464 492.321 291.114C488.215 292.336 484.45 291.008 483.151 286.641L480.892 279.048L477.698 279.998L476.351 275.468L479.544 274.518L478.294 270.314L484.713 268.404L485.964 272.608L492.905 270.543L494.253 275.073L487.312 277.138L489.251 283.656C489.736 285.285 491.223 285.871 492.95 285.358C494.025 285.038 494.929 284.379 495.826 283.58ZM502.413 279.031C503.748 281.613 506.261 282.071 509.911 280.985C512.779 280.132 514.303 278.934 515.688 277.032L519.965 279.484C518.069 282.531 515.016 284.433 510.91 285.654C503.252 287.933 497.682 285.546 495.879 279.485C494.075 273.423 497.37 268.399 504.604 266.247C511.122 264.308 516.719 266.19 518.619 272.577C518.833 273.294 518.926 273.727 518.902 274.125L502.413 279.031ZM506.007 270.725C503.237 271.549 501.615 273.131 501.548 275.528L512.087 272.321C510.772 270.407 508.745 269.91 506.007 270.725ZM529.476 279.315L523.056 281.225L517.685 263.171L524.105 261.261L525.104 264.618C525.846 261.63 528.313 259.548 531.539 258.588L533.129 263.932C529.284 265.077 526.95 267.367 526.888 270.614L529.476 279.315Z" fill="white"/>
<rect x="348.363" y="477.139" width="303.643" height="26" transform="rotate(173.274 348.363 477.139)" fill="#7681FC"/>
<path d="M46.811 512.703L43.7658 486.882L1.59125 504.946L46.811 512.703Z" fill="#B1B7FD"/>
<path d="M1.59111 504.946L17.4036 498.147L15.6985 500.765L17.9775 503.014L16.2841 505.731L18.5491 507.86L1.59111 504.946Z" fill="#3B4BFB"/>
<path d="M549.942 232.221L356.435 120.499L366.542 102.994L560.049 214.715L549.942 232.221Z" fill="#FF8C5D"/>
<path d="M356.436 120.5L366.543 102.994L332.056 94.7534L356.436 120.5Z" fill="#FFB599"/>
<path d="M332.056 94.7532L344.998 97.8263L342.727 98.67L343.093 101.126L340.784 102.037L341.197 104.411L332.056 94.7532Z" fill="#F66119"/>
<path d="M337.68 165.157L522.37 218.077L516.802 237.509L332.112 184.589L337.68 165.157Z" fill="#7681FC"/>
<path d="M522.37 218.077L516.802 237.509L552.257 237.154L522.37 218.077Z" fill="#B1B7FD"/>
<path d="M552.258 237.155L538.956 237.306L540.956 235.938L540.006 233.644L542.026 232.201L541.051 229.997L552.258 237.155Z" fill="#3B4BFB"/>
<path d="M295 234.999L295.021 291.704L335.135 251.623L339.377 255.865L299.295 295.978L356.001 296V302L299.295 302.021L339.377 342.135L335.135 346.377L295.021 306.295L295 363.001H289L288.978 306.295L248.865 346.377L244.623 342.135L284.704 302.021L227.999 302V296L284.704 295.978L244.623 255.865L248.865 251.623L288.978 291.704L289 234.999H295Z" fill="#3B4BFB" stroke="#3B4BFB" stroke-width="6"/>
<rect y="239" width="241" height="59" rx="29.5" fill="#222222"/>
<path d="M37.5 252.999L37.5059 266.39L49.1074 259.7L50.6074 262.299L39.0137 269L50.6074 275.701L49.1074 278.3L37.5059 271.609L37.5 285.001H34.5L34.4932 271.609L22.8926 278.3L21.3926 275.701L32.9854 269L21.3926 262.299L22.8926 259.7L34.4932 266.39L34.5 252.999H37.5Z" fill="#B1B7FD" stroke="#B1B7FD" stroke-width="3"/>
<path d="M79.5 252.999L79.5059 266.39L91.1074 259.7L92.6074 262.299L81.0137 269L92.6074 275.701L91.1074 278.3L79.5059 271.609L79.5 285.001H76.5L76.4932 271.609L64.8926 278.3L63.3926 275.701L74.9854 269L63.3926 262.299L64.8926 259.7L76.4932 266.39L76.5 252.999H79.5Z" fill="#B1B7FD" stroke="#B1B7FD" stroke-width="3"/>
<path d="M121.5 252.999L121.506 266.39L133.107 259.7L134.607 262.299L123.014 269L134.607 275.701L133.107 278.3L121.506 271.609L121.5 285.001H118.5L118.493 271.609L106.893 278.3L105.393 275.701L116.985 269L105.393 262.299L106.893 259.7L118.493 266.39L118.5 252.999H121.5Z" fill="#B1B7FD" stroke="#B1B7FD" stroke-width="3"/>
<path d="M163.5 252.999L163.506 266.39L175.107 259.7L176.607 262.299L165.014 269L176.607 275.701L175.107 278.3L163.506 271.609L163.5 285.001H160.5L160.493 271.609L148.893 278.3L147.393 275.701L158.985 269L147.393 262.299L148.893 259.7L160.493 266.39L160.5 252.999H163.5Z" fill="#B1B7FD" stroke="#B1B7FD" stroke-width="3"/>
<path d="M205.5 252.999L205.506 266.39L217.107 259.7L218.607 262.299L207.014 269L218.607 275.701L217.107 278.3L205.506 271.609L205.5 285.001H202.5L202.493 271.609L190.893 278.3L189.393 275.701L200.985 269L189.393 262.299L190.893 259.7L202.493 266.39L202.5 252.999H205.5Z" fill="#B1B7FD" stroke="#B1B7FD" stroke-width="3"/>
<rect x="388" y="5" width="172" height="112" fill="#3B4BFB"/>
<path d="M391 8.5L474.25 69.5L557.5 8.5" stroke="#7681FC" stroke-width="4"/>
<rect x="-3.72534" y="55.0237" width="196.631" height="196.631" rx="20" transform="rotate(-16.5341 -3.72534 55.0237)" fill="#F66119"/>
<circle cx="41.0697" cy="111.248" r="11.3168" transform="rotate(-16.5341 41.0697 111.248)" stroke="#FFB599"/>
<circle cx="47.7953" cy="133.904" r="11.8168" transform="rotate(-16.5341 47.7953 133.904)" fill="#FFB599"/>
<circle cx="54.5211" cy="156.56" r="11.8168" transform="rotate(-16.5341 54.5211 156.56)" fill="#FFB599"/>
<circle cx="61.2467" cy="179.217" r="11.8168" transform="rotate(-16.5341 61.2467 179.217)" fill="#FFB599"/>
<circle cx="67.9723" cy="201.872" r="11.8168" transform="rotate(-16.5341 67.9723 201.872)" fill="#FFB599"/>
<circle cx="63.7255" cy="104.521" r="11.3168" transform="rotate(-16.5341 63.7255 104.521)" stroke="#FFB599"/>
<circle cx="70.4513" cy="127.178" r="11.8168" transform="rotate(-16.5341 70.4513 127.178)" fill="#FFB599"/>
<circle cx="77.1769" cy="149.834" r="11.8168" transform="rotate(-16.5341 77.1769 149.834)" fill="#FFB599"/>
<circle cx="83.9027" cy="172.491" r="11.8168" transform="rotate(-16.5341 83.9027 172.491)" fill="#FFB599"/>
<circle cx="90.6303" cy="195.147" r="11.8168" transform="rotate(-16.5341 90.6303 195.147)" fill="#FFB599"/>
<circle cx="86.3834" cy="97.7956" r="11.3168" transform="rotate(-16.5341 86.3834 97.7956)" stroke="#FFB599"/>
<circle cx="93.1071" cy="120.451" r="11.8168" transform="rotate(-16.5341 93.1071 120.451)" fill="#FFB599"/>
<circle cx="99.8329" cy="143.108" r="11.8168" transform="rotate(-16.5341 99.8329 143.108)" fill="#222222"/>
<circle cx="106.56" cy="165.765" r="11.8168" transform="rotate(-16.5341 106.56 165.765)" fill="#FFB599"/>
<circle cx="113.286" cy="188.422" r="11.8168" transform="rotate(-16.5341 113.286 188.422)" fill="#FFB599"/>
<circle cx="109.037" cy="91.0698" r="11.8168" transform="rotate(-16.5341 109.037 91.0698)" fill="#FFB599"/>
<circle cx="115.765" cy="113.727" r="11.8168" transform="rotate(-16.5341 115.765 113.727)" fill="#FFB599"/>
<circle cx="122.491" cy="136.383" r="11.8168" transform="rotate(-16.5341 122.491 136.383)" fill="#FFB599"/>
<circle cx="129.216" cy="159.04" r="11.8168" transform="rotate(-16.5341 129.216 159.04)" fill="#FFB599"/>
<circle cx="135.942" cy="181.695" r="11.8168" transform="rotate(-16.5341 135.942 181.695)" fill="#222222"/>
<circle cx="131.695" cy="84.3442" r="11.8168" transform="rotate(-16.5341 131.695 84.3442)" fill="#FFB599"/>
<circle cx="138.421" cy="107" r="11.8168" transform="rotate(-16.5341 138.421 107)" fill="#FFB599"/>
<circle cx="145.147" cy="129.657" r="11.8168" transform="rotate(-16.5341 145.147 129.657)" fill="#FFB599"/>
<circle cx="151.872" cy="152.313" r="11.8168" transform="rotate(-16.5341 151.872 152.313)" fill="#222222"/>
<circle cx="158.598" cy="174.97" r="11.8168" transform="rotate(-16.5341 158.598 174.97)" fill="#FFB599"/>
<circle cx="154.351" cy="77.6184" r="11.8168" transform="rotate(-16.5341 154.351 77.6184)" fill="#222222"/>
<circle cx="161.079" cy="100.274" r="11.8168" transform="rotate(-16.5341 161.079 100.274)" fill="#FFB599"/>
<circle cx="167.802" cy="122.931" r="11.8168" transform="rotate(-16.5341 167.802 122.931)" fill="#FFB599"/>
<circle cx="174.528" cy="145.587" r="11.8168" transform="rotate(-16.5341 174.528 145.587)" fill="#FFB599"/>
<circle cx="181.256" cy="168.243" r="11.3168" transform="rotate(-16.5341 181.256 168.243)" stroke="#FFB599"/>
<circle cx="177.009" cy="70.8928" r="11.8168" transform="rotate(-16.5341 177.009 70.8928)" fill="#FFB599"/>
<circle cx="183.733" cy="93.5495" r="11.8168" transform="rotate(-16.5341 183.733 93.5495)" fill="#FFB599"/>
<circle cx="190.458" cy="116.206" r="11.8168" transform="rotate(-16.5341 190.458 116.206)" fill="#FFB599"/>
<circle cx="197.186" cy="138.862" r="11.8168" transform="rotate(-16.5341 197.186 138.862)" fill="#FFB599"/>
<circle cx="203.91" cy="161.518" r="11.3168" transform="rotate(-16.5341 203.91 161.518)" stroke="#FFB599"/>
<path d="M261.218 165.005L270.216 179.723L286.279 173.433L284.907 190.629L301.599 194.982L290.382 208.087L301.328 221.42L284.549 225.429L285.568 242.65L269.637 236.031L260.339 250.562L251.342 235.843L235.279 242.134L236.651 224.937L219.958 220.585L231.176 207.479L220.23 194.146L237.008 190.137L235.99 172.917L251.92 179.535L261.218 165.005Z" fill="#FF8C5D"/>
<circle cx="381.5" cy="243" r="42.5" fill="#FFB599"/>
<path d="M255.653 11.0862C258.478 0.544944 281.657 -2.40279 307.425 4.50169C333.193 11.4062 351.793 25.5486 348.969 36.0901C347.362 42.0867 339.168 45.6249 327.658 46.2912C337.294 52.6236 342.623 59.7846 341.016 65.7817C339.488 71.4836 332.004 74.9626 321.377 75.8636C330.129 81.9573 334.87 88.711 333.342 94.4128C331.735 100.41 323.541 103.948 312.029 104.614C321.665 110.947 326.993 118.107 325.386 124.103C323.779 130.1 315.585 133.638 304.074 134.304C313.71 140.637 319.038 147.798 317.431 153.795C314.606 164.336 291.427 167.285 265.659 160.38C239.891 153.476 221.291 139.332 224.115 128.791C225.722 122.794 233.916 119.257 245.426 118.591C235.791 112.258 230.464 105.097 232.071 99.0999C233.678 93.103 241.872 89.5651 253.383 88.899C243.748 82.567 238.421 75.4059 240.028 69.4092C241.555 63.7073 249.039 60.2292 259.665 59.328C250.913 53.2344 246.173 46.4796 247.7 40.7779C249.307 34.7814 257.501 31.244 269.01 30.5775C259.374 24.2451 254.046 17.0832 255.653 11.0862Z" fill="#B1B7FD"/>
</g>
</svg>
